<?xml version="1.0" standalone="no"?><!DOCTYPE svg PUBLIC "-//W3C//DTD SVG 1.1//EN" "http://www.w3.org/Graphics/SVG/1.1/DTD/svg11.dtd"><svg viewBox="0 0 24 24" height="100%" width="100%" preserveAspectRatio="xMidYMid meet" fit="" style="border-bottom-color:rgb(0, 0, 0);border-left-color:rgb(0, 0, 0);border-right-color:rgb(0, 0, 0);border-top-color:rgb(0, 0, 0);bottom:0px;color:rgb(0, 0, 0);cursor:pointer;display:block;height:100%;left:0px;line-height:64px;outline-color:rgb(0, 0, 0);pointer-events:none;position:absolute;right:0px;text-align:left;text-transform:uppercase;top:0px;width:100%;-webkit-column-rule-color:rgb(0, 0, 0);align-self:stretch;-webkit-font-smoothing:antialiased;perspective-origin:50% 50%;-webkit-text-emphasis-color:rgb(0, 0, 0);-webkit-text-fill-color:rgb(0, 0, 0);-webkit-text-stroke-color:rgb(0, 0, 0);transform-origin:50% 50%;fill:rgb(0, 0, 0);" version="1.1" xmlns="http://www.w3.org/2000/svg" xmlns:xlink="http://www.w3.org/1999/xlink"><g style="border-bottom-color:rgb(0, 0, 0);border-left-color:rgb(0, 0, 0);border-right-color:rgb(0, 0, 0);border-top-color:rgb(0, 0, 0);color:rgb(0, 0, 0);cursor:pointer;height:auto;line-height:64px;outline-color:rgb(0, 0, 0);overflow-x:visible;overflow-y:visible;pointer-events:none;text-align:left;text-transform:uppercase;width:auto;-webkit-column-rule-color:rgb(0, 0, 0);-webkit-font-smoothing:antialiased;perspective-origin:50% 50%;-webkit-text-emphasis-color:rgb(0, 0, 0);-webkit-text-fill-color:rgb(0, 0, 0);-webkit-text-stroke-color:rgb(0, 0, 0);transform-origin:0px 0px;fill:rgb(0, 0, 0);"><path d="M12 8c1.1 0 2-.9 2-2s-.9-2-2-2-2 .9-2 2 .9 2 2 2zm0 2c-1.1 0-2 .9-2 2s.9 2 2 2 2-.9 2-2-.9-2-2-2zm0 6c-1.1 0-2 .9-2 2s.9 2 2 2 2-.9 2-2-.9-2-2-2z" style="border-bottom-color:rgb(0, 0, 0);border-left-color:rgb(0, 0, 0);border-right-color:rgb(0, 0, 0);border-top-color:rgb(0, 0, 0);color:rgb(0, 0, 0);cursor:pointer;height:auto;line-height:64px;outline-color:rgb(0, 0, 0);overflow-x:visible;overflow-y:visible;pointer-events:none;text-align:left;text-transform:uppercase;width:auto;-webkit-column-rule-color:rgb(0, 0, 0);-webkit-font-smoothing:antialiased;perspective-origin:50% 50%;-webkit-text-emphasis-color:rgb(0, 0, 0);-webkit-text-fill-color:rgb(0, 0, 0);-webkit-text-stroke-color:rgb(0, 0, 0);transform-origin:0px 0px;fill:rgb(0, 0, 0);"/></g></svg>